<svg width="75" height="47" viewBox="0 0 75 47" fill="none" xmlns="http://www.w3.org/2000/svg">
<path d="M23.932 45.0371C25.5043 45.0371 26.6518 44.1387 26.8568 42.7861V42.7568H25.7729L25.7631 42.7764C25.5629 43.5723 24.8646 44.0703 23.932 44.0703C22.6625 44.0703 21.8715 43.0205 21.8715 41.3506V41.3408C21.8715 39.666 22.6625 38.6162 23.9271 38.6162C24.8549 38.6162 25.5629 39.1777 25.768 40.042V40.0566H26.852L26.8568 40.0322C26.6713 38.6309 25.4799 37.6494 23.9271 37.6494C21.9691 37.6494 20.7533 39.0654 20.7533 41.3408V41.3506C20.7533 43.6211 21.974 45.0371 23.932 45.0371ZM29.3561 42.5225L31.2555 44.8662H32.5641L30.2155 42.0342L32.4664 39.5635H31.2311L29.3512 41.7314H29.0875V39.5635H28.028V44.8662H29.0875V42.5225H29.3561ZM34.7362 44.9541C35.4393 44.9541 35.996 44.6514 36.3085 44.1143H36.3915V44.8662H37.4413V41.2383C37.4413 40.125 36.6893 39.4609 35.3563 39.4609C34.1503 39.4609 33.3153 40.042 33.1884 40.9111L33.1835 40.9453H34.204L34.2089 40.9258C34.3358 40.5498 34.7216 40.335 35.3075 40.335C36.0253 40.335 36.3915 40.6572 36.3915 41.2383V41.707L34.9559 41.79C33.6913 41.8682 32.9784 42.4199 32.9784 43.3672V43.377C32.9784 44.3389 33.7255 44.9541 34.7362 44.9541ZM34.0331 43.333V43.3232C34.0331 42.8447 34.3651 42.5811 35.0975 42.5371L36.3915 42.4541V42.9082C36.3915 43.5918 35.8104 44.1094 35.0194 44.1094C34.4481 44.1094 34.0331 43.8213 34.0331 43.333ZM42.255 44.8662H43.3097V39.5635H42.255V41.7021H39.8478V39.5635H38.7882V44.8662H39.8478V42.542H42.255V44.8662ZM46.9125 44.9688C48.2699 44.9688 49.0023 44.1875 49.1781 43.4893L49.1879 43.4453L48.1673 43.4502L48.1478 43.4893C48.0209 43.7627 47.6156 44.0996 46.9369 44.0996C46.0629 44.0996 45.5062 43.5088 45.4867 42.4932H49.2464V42.1221C49.2464 40.5303 48.3382 39.4609 46.8588 39.4609C45.3793 39.4609 44.4222 40.5693 44.4222 42.2246V42.2295C44.4222 43.9092 45.3597 44.9688 46.9125 44.9688ZM46.8636 40.3301C47.5814 40.3301 48.1136 40.7891 48.1966 41.7363H45.5013C45.5941 40.8232 46.141 40.3301 46.8636 40.3301ZM50.3639 46.6338H51.4234V44.0264H51.5016C51.7848 44.5977 52.4049 44.9541 53.1324 44.9541C54.4801 44.9541 55.3297 43.8994 55.3297 42.2197V42.21C55.3297 40.54 54.4703 39.4707 53.1324 39.4707C52.3902 39.4707 51.8092 39.8174 51.5016 40.3984H51.4234V39.5635H50.3639V46.6338ZM52.8346 44.0508C51.9508 44.0508 51.4039 43.3525 51.4039 42.2197V42.21C51.4039 41.0771 51.9508 40.3789 52.8346 40.3789C53.7184 40.3789 54.2506 41.0674 54.2506 42.21V42.2197C54.2506 43.3574 53.7184 44.0508 52.8346 44.0508Z" fill="#B0B0B0"/>
<path d="M28 23.6152V26.846C28 27.4172 28.2269 27.9651 28.6308 28.369C29.0348 28.7729 29.5826 28.9998 30.1538 28.9998H33.3846" stroke="#B0B0B0" stroke-width="2.5" stroke-linecap="round" stroke-linejoin="round"/>
<path d="M48 14.3848L48 11.154C48 10.5828 47.7731 10.0349 47.3692 9.631C46.9652 9.22707 46.4174 9.00015 45.8462 9.00015L42.6154 9.00015" stroke="#B0B0B0" stroke-width="2.5" stroke-linecap="round" stroke-linejoin="round"/>
<path d="M33.3845 9L30.1538 9C29.5825 9 29.0347 9.22692 28.6308 9.63085C28.2268 10.0348 27.9999 10.5826 27.9999 11.1538L27.9999 14.3846" stroke="#B0B0B0" stroke-width="2.5" stroke-linecap="round" stroke-linejoin="round"/>
<path d="M42.6155 29L45.8462 29C46.4175 29 46.9653 28.7731 47.3692 28.3692C47.7732 27.9652 48.0001 27.4174 48.0001 26.8462L48.0001 23.6154" stroke="#B0B0B0" stroke-width="2.5" stroke-linecap="round" stroke-linejoin="round"/>
<rect x="32.2937" y="17.2939" width="11" height="3" rx="1.5" fill="#B0B0B0"/>
</svg>
