<svg width="75" height="47" viewBox="0 0 75 47" fill="none" xmlns="http://www.w3.org/2000/svg">
<g filter="url(#filter0_d_2_1006)">
<path fill-rule="evenodd" clip-rule="evenodd" d="M32.2615 7.09239C30.054 7.51746 28.407 9.14981 28.0616 11.2546C28.005 11.5995 27.9903 13.7282 28.0058 19.2964C28.0287 27.5351 28.0025 26.9407 28.3854 27.9158C28.8208 29.0249 30.0976 30.2413 31.2627 30.6573C32.2709 31.0172 31.9049 30.9999 38.5008 30.9999C45.0967 30.9999 44.7307 31.0172 45.7388 30.6573C46.904 30.2413 48.1808 29.0249 48.6162 27.9158C48.9928 26.9566 48.9718 27.3139 48.9948 21.4869C49.0066 18.5266 48.9976 15.9779 48.9751 15.823C48.935 15.5481 48.8273 15.4395 44.522 11.3313C41.0452 8.01389 40.0611 7.10841 39.88 7.06028C39.5129 6.96265 32.788 6.991 32.2615 7.09239ZM38.5169 10.9257C38.5444 12.9476 38.5556 13.0356 38.8937 13.8967C39.329 15.0055 40.6065 16.2229 41.77 16.6377C42.6737 16.9599 42.766 16.9705 44.8878 16.9967L46.9074 17.0217V21.6396C46.9074 24.519 46.8822 26.3844 46.8404 26.5944C46.6203 27.7004 45.6817 28.6412 44.5075 28.9326C43.936 29.0744 33.0746 29.0767 32.504 28.9351C31.3651 28.6524 30.4898 27.8209 30.1947 26.7414C30.0452 26.1942 30.0427 11.8442 30.1922 11.2976C30.485 10.2262 31.3557 9.38457 32.4659 9.10012C32.7478 9.02783 33.3965 9.00856 35.6553 9.0053L38.4907 9.00117L38.5169 10.9257ZM44.4314 14.9955C43.8999 15.005 43.3082 14.9818 43.1165 14.9439C42.2605 14.7745 41.3577 14.1231 40.9708 13.3955C40.6752 12.8398 40.6024 12.4418 40.6024 11.3822V10.41L43.0001 12.694L45.3978 14.9781L44.4314 14.9955ZM33.8673 16.0969C33.234 16.3656 33.0562 17.1678 33.5187 17.6698C33.8125 17.9886 34.0291 18.0251 35.4915 18.0023C36.9065 17.9802 36.9552 17.968 37.2817 17.5512C37.4716 17.3089 37.4716 16.7152 37.2817 16.4729C36.9521 16.0523 36.9155 16.0434 35.4258 16.027C34.3959 16.0156 34.0192 16.0325 33.8673 16.0969ZM33.8673 20.1035C33.4325 20.2855 33.1823 20.765 33.2754 21.2379C33.333 21.5304 33.6608 21.8762 33.9588 21.9587C34.121 22.0036 35.6421 22.0191 38.6438 22.0064C43.0149 21.9879 43.0916 21.9855 43.2699 21.8585C43.6146 21.6133 43.7221 21.4133 43.7221 21.0175C43.7221 20.6217 43.6146 20.4217 43.2699 20.1765C43.0914 20.0494 43.0197 20.0473 38.5781 20.0336C34.9286 20.0224 34.0294 20.0357 33.8673 20.1035ZM33.8673 24.109C33.4325 24.2909 33.1823 24.7704 33.2754 25.2433C33.333 25.5358 33.6608 25.8816 33.9588 25.9641C34.121 26.0091 35.6421 26.0246 38.6438 26.0119C43.0149 25.9934 43.0916 25.9909 43.2699 25.864C43.6146 25.6188 43.7221 25.4188 43.7221 25.023C43.7221 24.6272 43.6146 24.4272 43.2699 24.182C43.0914 24.0549 43.0197 24.0527 38.5781 24.039C34.9286 24.0278 34.0294 24.0411 33.8673 24.109Z" fill="white"/>
<path d="M18.1437 44.8662V41.7363H18.3976L21.298 44.8662H22.6847L19.3302 41.2236L22.4308 37.8203H21.1369L18.3927 40.8818H18.1437V37.8203H17.05V44.8662H18.1437ZM24.7055 44.9541C25.4086 44.9541 25.9652 44.6514 26.2777 44.1143H26.3607V44.8662H27.4105V41.2383C27.4105 40.125 26.6586 39.4609 25.3256 39.4609C24.1195 39.4609 23.2846 40.042 23.1576 40.9111L23.1527 40.9453H24.1732L24.1781 40.9258C24.3051 40.5498 24.6908 40.335 25.2768 40.335C25.9945 40.335 26.3607 40.6572 26.3607 41.2383V41.707L24.9252 41.79C23.6605 41.8682 22.9477 42.4199 22.9477 43.3672V43.377C22.9477 44.3389 23.6947 44.9541 24.7055 44.9541ZM24.0023 43.333V43.3232C24.0023 42.8447 24.3344 42.5811 25.0668 42.5371L26.3607 42.4541V42.9082C26.3607 43.5918 25.7797 44.1094 24.9887 44.1094C24.4174 44.1094 24.0023 43.8213 24.0023 43.333ZM28.7623 46.6338H29.8219V44.0264H29.9C30.1832 44.5977 30.8034 44.9541 31.5309 44.9541C32.8786 44.9541 33.7282 43.8994 33.7282 42.2197V42.21C33.7282 40.54 32.8688 39.4707 31.5309 39.4707C30.7887 39.4707 30.2077 39.8174 29.9 40.3984H29.8219V39.5635H28.7623V46.6338ZM31.233 44.0508C30.3493 44.0508 29.8024 43.3525 29.8024 42.2197V42.21C29.8024 41.0771 30.3493 40.3789 31.233 40.3789C32.1168 40.3789 32.6491 41.0674 32.6491 42.21V42.2197C32.6491 43.3574 32.1168 44.0508 31.233 44.0508ZM38.4979 39.5635H34.0985V40.3984H35.7684V44.8662H36.828V40.3984H38.4979V39.5635ZM41.5148 44.9688C43.0675 44.9688 44.0196 43.9287 44.0196 42.2197V42.21C44.0196 40.501 43.0626 39.4609 41.5148 39.4609C39.962 39.4609 39.005 40.5059 39.005 42.21V42.2197C39.005 43.9287 39.9571 44.9688 41.5148 44.9688ZM41.5148 44.085C40.6017 44.085 40.089 43.3965 40.089 42.2197V42.21C40.089 41.0332 40.6017 40.3447 41.5148 40.3447C42.423 40.3447 42.9405 41.0332 42.9405 42.21V42.2197C42.9405 43.3916 42.423 44.085 41.5148 44.085ZM49.307 44.8662V39.5635H48.2523V41.7607C48.0472 41.9805 47.6371 42.1318 47.0462 42.1318C46.3627 42.1318 46.016 41.7314 46.016 41.0576V39.5635H44.9564V41.1162C44.9564 42.2783 45.6498 43.04 46.9193 43.04C47.4711 43.04 47.8861 42.918 48.1693 42.708H48.2523V44.8662H49.307ZM52.0162 42.5225L53.9156 44.8662H55.2242L52.8756 42.0342L55.1266 39.5635H53.8912L52.0113 41.7314H51.7477V39.5635H50.6881V44.8662H51.7477V42.5225H52.0162ZM57.3963 44.9541C58.0995 44.9541 58.6561 44.6514 58.9686 44.1143H59.0516V44.8662H60.1014V41.2383C60.1014 40.125 59.3495 39.4609 58.0164 39.4609C56.8104 39.4609 55.9754 40.042 55.8485 40.9111L55.8436 40.9453H56.8641L56.869 40.9258C56.9959 40.5498 57.3817 40.335 57.9676 40.335C58.6854 40.335 59.0516 40.6572 59.0516 41.2383V41.707L57.6161 41.79C56.3514 41.8682 55.6385 42.4199 55.6385 43.3672V43.377C55.6385 44.3389 56.3856 44.9541 57.3963 44.9541ZM56.6932 43.333V43.3232C56.6932 42.8447 57.0252 42.5811 57.7577 42.5371L59.0516 42.4541V42.9082C59.0516 43.5918 58.4705 44.1094 57.6795 44.1094C57.1082 44.1094 56.6932 43.8213 56.6932 43.333Z" fill="white"/>
</g>
<defs>
<filter id="filter0_d_2_1006" x="-4" y="0" width="83" height="57" filterUnits="userSpaceOnUse" color-interpolation-filters="sRGB">
<feFlood flood-opacity="0" result="BackgroundImageFix"/>
<feColorMatrix in="SourceAlpha" type="matrix" values="0 0 0 0 0 0 0 0 0 0 0 0 0 0 0 0 0 0 127 0" result="hardAlpha"/>
<feOffset dy="4"/>
<feGaussianBlur stdDeviation="2"/>
<feComposite in2="hardAlpha" operator="out"/>
<feColorMatrix type="matrix" values="0 0 0 0 0 0 0 0 0 0 0 0 0 0 0 0 0 0 0.25 0"/>
<feBlend mode="normal" in2="BackgroundImageFix" result="effect1_dropShadow_2_1006"/>
<feBlend mode="normal" in="SourceGraphic" in2="effect1_dropShadow_2_1006" result="shape"/>
</filter>
</defs>
</svg>
